<mxfile host="Electron" modified="2024-02-22T17:06:28.550Z" agent="Mozilla/5.0 (Windows NT 10.0; Win64; x64) AppleWebKit/537.36 (KHTML, like Gecko) draw.io/23.1.5 Chrome/120.0.6099.109 Electron/28.1.0 Safari/537.36" etag="jTFyGqon0DXJlSQ9YtQ7" version="23.1.5" type="device">
  <diagram name="Pagina-1" id="sKizvxkulfAX-31kFnU7">
    <mxGraphModel dx="2985" dy="1643" grid="1" gridSize="10" guides="1" tooltips="1" connect="1" arrows="1" fold="1" page="1" pageScale="1" pageWidth="1920" pageHeight="1200" math="0" shadow="0">
      <root>
        <mxCell id="0" />
        <mxCell id="1" parent="0" />
        <mxCell id="-rCWjpT_qD51vRHxb9g3-3" value="State diagram" style="shape=umlFrame;whiteSpace=wrap;html=1;pointerEvents=0;recursiveResize=0;container=1;collapsible=0;width=160;" vertex="1" parent="1">
          <mxGeometry width="1370" height="680" as="geometry" />
        </mxCell>
        <mxCell id="-rCWjpT_qD51vRHxb9g3-12" style="edgeStyle=orthogonalEdgeStyle;rounded=0;orthogonalLoop=1;jettySize=auto;html=1;entryX=0;entryY=0.5;entryDx=0;entryDy=0;" edge="1" parent="-rCWjpT_qD51vRHxb9g3-3" source="-rCWjpT_qD51vRHxb9g3-1" target="-rCWjpT_qD51vRHxb9g3-11">
          <mxGeometry relative="1" as="geometry" />
        </mxCell>
        <mxCell id="-rCWjpT_qD51vRHxb9g3-1" value="" style="ellipse;" vertex="1" parent="-rCWjpT_qD51vRHxb9g3-3">
          <mxGeometry x="100" y="141" width="30" height="30" as="geometry" />
        </mxCell>
        <mxCell id="-rCWjpT_qD51vRHxb9g3-4" value="Create event" style="text;html=1;align=center;verticalAlign=middle;resizable=0;points=[];autosize=1;strokeColor=none;fillColor=none;" vertex="1" parent="-rCWjpT_qD51vRHxb9g3-3">
          <mxGeometry x="70" y="111" width="90" height="30" as="geometry" />
        </mxCell>
        <mxCell id="-rCWjpT_qD51vRHxb9g3-5" value="End" style="text;html=1;align=center;verticalAlign=middle;resizable=0;points=[];autosize=1;strokeColor=none;fillColor=none;" vertex="1" parent="-rCWjpT_qD51vRHxb9g3-3">
          <mxGeometry x="520" y="559" width="40" height="30" as="geometry" />
        </mxCell>
        <mxCell id="-rCWjpT_qD51vRHxb9g3-2" value="" style="ellipse;html=1;shape=endState;fillColor=strokeColor;" vertex="1" parent="-rCWjpT_qD51vRHxb9g3-3">
          <mxGeometry x="525" y="529" width="30" height="30" as="geometry" />
        </mxCell>
        <mxCell id="-rCWjpT_qD51vRHxb9g3-16" style="edgeStyle=orthogonalEdgeStyle;rounded=0;orthogonalLoop=1;jettySize=auto;html=1;" edge="1" parent="-rCWjpT_qD51vRHxb9g3-3">
          <mxGeometry relative="1" as="geometry">
            <mxPoint x="410" y="155.57999999999998" as="sourcePoint" />
            <mxPoint x="670" y="155.57999999999998" as="targetPoint" />
          </mxGeometry>
        </mxCell>
        <mxCell id="-rCWjpT_qD51vRHxb9g3-32" style="edgeStyle=orthogonalEdgeStyle;rounded=0;orthogonalLoop=1;jettySize=auto;html=1;entryX=0;entryY=0.5;entryDx=0;entryDy=0;" edge="1" parent="-rCWjpT_qD51vRHxb9g3-3" source="-rCWjpT_qD51vRHxb9g3-11" target="-rCWjpT_qD51vRHxb9g3-31">
          <mxGeometry relative="1" as="geometry">
            <Array as="points">
              <mxPoint x="320" y="421" />
            </Array>
          </mxGeometry>
        </mxCell>
        <mxCell id="-rCWjpT_qD51vRHxb9g3-11" value="On Home page organizer" style="rounded=1;whiteSpace=wrap;html=1;" vertex="1" parent="-rCWjpT_qD51vRHxb9g3-3">
          <mxGeometry x="290" y="126" width="120" height="60" as="geometry" />
        </mxCell>
        <mxCell id="-rCWjpT_qD51vRHxb9g3-13" value="&lt;font style=&quot;font-size: 9px;&quot;&gt;click [button == goToAddEventBtn] / loadAddEventPage&lt;/font&gt;" style="text;html=1;align=center;verticalAlign=middle;resizable=0;points=[];autosize=1;strokeColor=none;fillColor=none;" vertex="1" parent="-rCWjpT_qD51vRHxb9g3-3">
          <mxGeometry x="415" y="131" width="250" height="30" as="geometry" />
        </mxCell>
        <mxCell id="-rCWjpT_qD51vRHxb9g3-19" style="edgeStyle=orthogonalEdgeStyle;rounded=0;orthogonalLoop=1;jettySize=auto;html=1;entryX=0.5;entryY=1;entryDx=0;entryDy=0;" edge="1" parent="-rCWjpT_qD51vRHxb9g3-3" source="-rCWjpT_qD51vRHxb9g3-15" target="-rCWjpT_qD51vRHxb9g3-11">
          <mxGeometry relative="1" as="geometry">
            <Array as="points">
              <mxPoint x="725" y="206" />
              <mxPoint x="350" y="206" />
            </Array>
          </mxGeometry>
        </mxCell>
        <mxCell id="-rCWjpT_qD51vRHxb9g3-23" style="edgeStyle=orthogonalEdgeStyle;rounded=0;orthogonalLoop=1;jettySize=auto;html=1;" edge="1" parent="-rCWjpT_qD51vRHxb9g3-3" source="-rCWjpT_qD51vRHxb9g3-15" target="-rCWjpT_qD51vRHxb9g3-22">
          <mxGeometry relative="1" as="geometry" />
        </mxCell>
        <mxCell id="-rCWjpT_qD51vRHxb9g3-15" value="On Add event page" style="rounded=1;whiteSpace=wrap;html=1;" vertex="1" parent="-rCWjpT_qD51vRHxb9g3-3">
          <mxGeometry x="670" y="126" width="110" height="60" as="geometry" />
        </mxCell>
        <mxCell id="-rCWjpT_qD51vRHxb9g3-20" value="&lt;font style=&quot;font-size: 9px;&quot;&gt;click [button == goBackBtn] / goHomeOrg&lt;/font&gt;" style="text;html=1;align=center;verticalAlign=middle;resizable=0;points=[];autosize=1;strokeColor=none;fillColor=none;" vertex="1" parent="-rCWjpT_qD51vRHxb9g3-3">
          <mxGeometry x="445" y="182" width="190" height="30" as="geometry" />
        </mxCell>
        <mxCell id="-rCWjpT_qD51vRHxb9g3-27" style="edgeStyle=orthogonalEdgeStyle;rounded=0;orthogonalLoop=1;jettySize=auto;html=1;" edge="1" parent="-rCWjpT_qD51vRHxb9g3-3" source="-rCWjpT_qD51vRHxb9g3-22" target="-rCWjpT_qD51vRHxb9g3-26">
          <mxGeometry relative="1" as="geometry" />
        </mxCell>
        <mxCell id="-rCWjpT_qD51vRHxb9g3-29" style="edgeStyle=orthogonalEdgeStyle;rounded=0;orthogonalLoop=1;jettySize=auto;html=1;entryX=0.5;entryY=0;entryDx=0;entryDy=0;" edge="1" parent="-rCWjpT_qD51vRHxb9g3-3" source="-rCWjpT_qD51vRHxb9g3-22" target="-rCWjpT_qD51vRHxb9g3-15">
          <mxGeometry relative="1" as="geometry">
            <Array as="points">
              <mxPoint x="1192" y="106" />
              <mxPoint x="725" y="106" />
            </Array>
          </mxGeometry>
        </mxCell>
        <mxCell id="-rCWjpT_qD51vRHxb9g3-22" value="On confirmation form" style="rounded=1;whiteSpace=wrap;html=1;" vertex="1" parent="-rCWjpT_qD51vRHxb9g3-3">
          <mxGeometry x="1137" y="126" width="110" height="60" as="geometry" />
        </mxCell>
        <mxCell id="-rCWjpT_qD51vRHxb9g3-24" value="&lt;font style=&quot;font-size: 9px;&quot;&gt;click [button == addEventBtn AND isDataValid == true] / showAddEventConfirmation&lt;/font&gt;" style="text;html=1;align=center;verticalAlign=middle;resizable=0;points=[];autosize=1;strokeColor=none;fillColor=none;" vertex="1" parent="-rCWjpT_qD51vRHxb9g3-3">
          <mxGeometry x="780" y="131" width="360" height="30" as="geometry" />
        </mxCell>
        <mxCell id="-rCWjpT_qD51vRHxb9g3-35" style="edgeStyle=orthogonalEdgeStyle;rounded=0;orthogonalLoop=1;jettySize=auto;html=1;entryX=1;entryY=0.5;entryDx=0;entryDy=0;" edge="1" parent="-rCWjpT_qD51vRHxb9g3-3" source="-rCWjpT_qD51vRHxb9g3-26" target="-rCWjpT_qD51vRHxb9g3-31">
          <mxGeometry relative="1" as="geometry">
            <Array as="points">
              <mxPoint x="1192" y="421" />
            </Array>
          </mxGeometry>
        </mxCell>
        <mxCell id="-rCWjpT_qD51vRHxb9g3-38" style="edgeStyle=orthogonalEdgeStyle;rounded=0;orthogonalLoop=1;jettySize=auto;html=1;" edge="1" parent="-rCWjpT_qD51vRHxb9g3-3" source="-rCWjpT_qD51vRHxb9g3-26" target="-rCWjpT_qD51vRHxb9g3-37">
          <mxGeometry relative="1" as="geometry" />
        </mxCell>
        <mxCell id="-rCWjpT_qD51vRHxb9g3-26" value="On confirmation page" style="rounded=1;whiteSpace=wrap;html=1;" vertex="1" parent="-rCWjpT_qD51vRHxb9g3-3">
          <mxGeometry x="1137" y="271" width="110" height="60" as="geometry" />
        </mxCell>
        <mxCell id="-rCWjpT_qD51vRHxb9g3-28" value="&lt;font style=&quot;font-size: 9px;&quot;&gt;click [button == confirmBtn] / addEvent&lt;/font&gt;" style="text;html=1;align=center;verticalAlign=middle;resizable=0;points=[];autosize=1;strokeColor=none;fillColor=none;" vertex="1" parent="-rCWjpT_qD51vRHxb9g3-3">
          <mxGeometry x="1020" y="212" width="180" height="30" as="geometry" />
        </mxCell>
        <mxCell id="-rCWjpT_qD51vRHxb9g3-30" value="&lt;font style=&quot;font-size: 9px;&quot;&gt;click [button == cancelBtn] / goBack&lt;/font&gt;" style="text;html=1;align=center;verticalAlign=middle;resizable=0;points=[];autosize=1;strokeColor=none;fillColor=none;" vertex="1" parent="-rCWjpT_qD51vRHxb9g3-3">
          <mxGeometry x="870" y="81" width="170" height="30" as="geometry" />
        </mxCell>
        <mxCell id="-rCWjpT_qD51vRHxb9g3-34" style="edgeStyle=orthogonalEdgeStyle;rounded=0;orthogonalLoop=1;jettySize=auto;html=1;" edge="1" parent="-rCWjpT_qD51vRHxb9g3-3" source="-rCWjpT_qD51vRHxb9g3-31" target="-rCWjpT_qD51vRHxb9g3-2">
          <mxGeometry relative="1" as="geometry" />
        </mxCell>
        <mxCell id="-rCWjpT_qD51vRHxb9g3-31" value="Exit" style="rounded=1;whiteSpace=wrap;html=1;" vertex="1" parent="-rCWjpT_qD51vRHxb9g3-3">
          <mxGeometry x="485" y="391" width="110" height="60" as="geometry" />
        </mxCell>
        <mxCell id="-rCWjpT_qD51vRHxb9g3-33" value="&lt;font style=&quot;font-size: 9px;&quot;&gt;click [button == ExitBtn] / goToExit&lt;/font&gt;" style="text;html=1;align=center;verticalAlign=middle;resizable=0;points=[];autosize=1;strokeColor=none;fillColor=none;" vertex="1" parent="-rCWjpT_qD51vRHxb9g3-3">
          <mxGeometry x="312" y="301" width="160" height="30" as="geometry" />
        </mxCell>
        <mxCell id="-rCWjpT_qD51vRHxb9g3-36" value="&lt;font style=&quot;font-size: 9px;&quot;&gt;click [button = ExitBtn] / goToExit&lt;/font&gt;" style="text;html=1;align=center;verticalAlign=middle;resizable=0;points=[];autosize=1;strokeColor=none;fillColor=none;" vertex="1" parent="-rCWjpT_qD51vRHxb9g3-3">
          <mxGeometry x="760" y="394" width="150" height="30" as="geometry" />
        </mxCell>
        <mxCell id="-rCWjpT_qD51vRHxb9g3-40" style="edgeStyle=orthogonalEdgeStyle;rounded=0;orthogonalLoop=1;jettySize=auto;html=1;" edge="1" parent="-rCWjpT_qD51vRHxb9g3-3" source="-rCWjpT_qD51vRHxb9g3-37" target="-rCWjpT_qD51vRHxb9g3-31">
          <mxGeometry relative="1" as="geometry" />
        </mxCell>
        <mxCell id="-rCWjpT_qD51vRHxb9g3-37" value="Review last event information" style="rounded=1;whiteSpace=wrap;html=1;" vertex="1" parent="-rCWjpT_qD51vRHxb9g3-3">
          <mxGeometry x="740" y="271" width="110" height="60" as="geometry" />
        </mxCell>
        <mxCell id="-rCWjpT_qD51vRHxb9g3-39" value="&lt;font style=&quot;font-size: 9px;&quot;&gt;click [button == myEventsBtn] / goToEvents&lt;/font&gt;" style="text;html=1;align=center;verticalAlign=middle;resizable=0;points=[];autosize=1;strokeColor=none;fillColor=none;" vertex="1" parent="-rCWjpT_qD51vRHxb9g3-3">
          <mxGeometry x="905" y="271" width="200" height="30" as="geometry" />
        </mxCell>
        <mxCell id="-rCWjpT_qD51vRHxb9g3-41" value="&lt;font style=&quot;font-size: 9px;&quot;&gt;click [button == ExitBtn] / goToExit&lt;/font&gt;" style="text;html=1;align=center;verticalAlign=middle;resizable=0;points=[];autosize=1;strokeColor=none;fillColor=none;" vertex="1" parent="-rCWjpT_qD51vRHxb9g3-3">
          <mxGeometry x="550" y="271" width="160" height="30" as="geometry" />
        </mxCell>
        <mxCell id="-rCWjpT_qD51vRHxb9g3-43" style="edgeStyle=orthogonalEdgeStyle;rounded=0;orthogonalLoop=1;jettySize=auto;html=1;exitX=0;exitY=0.25;exitDx=0;exitDy=0;" edge="1" parent="-rCWjpT_qD51vRHxb9g3-3" source="-rCWjpT_qD51vRHxb9g3-15" target="-rCWjpT_qD51vRHxb9g3-15">
          <mxGeometry relative="1" as="geometry">
            <Array as="points">
              <mxPoint x="670" y="131" />
              <mxPoint x="640" y="131" />
              <mxPoint x="640" y="81" />
              <mxPoint x="700" y="81" />
            </Array>
          </mxGeometry>
        </mxCell>
        <mxCell id="-rCWjpT_qD51vRHxb9g3-44" value="&lt;font style=&quot;font-size: 9px;&quot;&gt;click [button == addEventBtn AND isDataValid == false] / displayErrorMessage&lt;/font&gt;" style="text;html=1;align=center;verticalAlign=middle;resizable=0;points=[];autosize=1;strokeColor=none;fillColor=none;" vertex="1" parent="-rCWjpT_qD51vRHxb9g3-3">
          <mxGeometry x="510" y="51" width="340" height="30" as="geometry" />
        </mxCell>
      </root>
    </mxGraphModel>
  </diagram>
</mxfile>
